<svg width="83" height="35" viewBox="0 0 83 35" fill="none" xmlns="http://www.w3.org/2000/svg">
<path d="M79.2142 34.7264C77.1578 34.7264 75.4285 33.0438 75.4285 31.0341C75.4285 28.9776 77.1578 27.295 79.2142 27.295C81.2707 27.295 83 28.9776 83 31.0341C83 33.0438 81.2707 34.7264 79.2142 34.7264Z" fill="white"/>
<path d="M61.1125 34.1655L51.9519 11.0769H58.0278L62.0473 21.6865C63.0288 24.444 63.8233 26.8276 64.1038 28.0896C64.4309 26.6407 65.2722 24.2103 66.2537 21.6865L70.4601 11.0769H76.3491L66.7211 34.1655H61.1125Z" fill="white"/>
<path d="M26.5129 22.5745C26.5129 15.3768 31.7008 10.4226 38.8517 10.4226C46.0027 10.4226 51.1906 15.3768 51.1906 22.5745C51.1906 29.7721 46.0027 34.7263 38.8517 34.7263C31.7008 34.7263 26.5129 29.7721 26.5129 22.5745ZM38.8517 22.5745C38.8517 26.7809 34.9258 29.6319 38.8517 29.6319C42.7777 29.6319 45.4885 26.7809 45.4885 22.5745C45.4885 18.368 42.7777 15.517 38.8517 15.517C34.9258 15.517 38.8517 18.368 38.8517 22.5745Z" fill="white"/>
<path d="M13.5073 22.3875H5.98247V34.1655H0V0H13.5073C20.3778 0 24.8179 4.48684 24.8179 11.1704C24.8179 17.7604 20.331 22.3875 13.5073 22.3875ZM12.3388 5.32813H5.98247V17.0594H12.2454C16.3583 17.0594 18.555 14.8627 18.555 11.1236C18.555 7.3846 16.3116 5.32813 12.3388 5.32813Z" fill="white"/>
</svg>
